<?xml version="1.0" encoding="utf-8" ?>
<svg xmlns="http://www.w3.org/2000/svg" xmlns:xlink="http://www.w3.org/1999/xlink" width="1024" height="1024">
	<path fill="#6148B2" d="M0 -0L1024 0L1024 1024L-0 1024L0 -0Z"/>
	<path fill="#6148B2" d="M334.469 287.574C335.653 288.344 336.392 289.055 336.75 290.45C337.2 292.202 337.375 293.795 336.75 295.503C335.821 296.563 335.111 297.51 333.75 298.026C331.759 297.958 330.602 297.713 329.19 296.223C328.472 295.465 327.784 294.637 327.328 293.693C329.019 293.671 330.766 293.817 332.182 292.75C333.896 291.458 334.149 289.558 334.469 287.574Z"/>
	<path fill="#6148B2" d="M639.074 242.75C640.904 245.342 641.625 247.57 641.439 250.75C640.531 252.422 639.782 253.163 638.216 254.231C636.621 254.37 635.853 254.422 634.633 253.25L632.056 249.684C633.57 249.504 634.918 249.247 636.231 248.424C638.393 247.068 638.627 245.108 639.074 242.75Z"/>
	<path fill="#F6A43B" d="M217.929 252.101C218.793 255.04 219.174 258.173 217.616 260.942C216.394 263.113 215.007 264.534 212.556 265.208C209.639 266.011 206.351 265.605 203.823 263.942L202.99 263.368L208.555 262.681C214.508 261.366 214.493 256.951 217.407 252.816L217.929 252.101Z"/>
	<path fill="#6148B2" d="M465.862 142.537C467.422 143.742 468.417 144.823 468.75 146.834C469.05 148.646 469.245 151.468 468.121 153.067C467.134 154.47 465.9 155.012 464.25 155.259C462.765 155.482 461.572 155.127 460.25 154.502C459.028 153.016 458.362 152.147 458.579 150.107L458.683 149.414C459.757 149.292 461.052 149.219 462.019 148.71C464.228 147.546 465.105 144.709 465.862 142.537Z"/>
	<path fill="#23ADAA" d="M327.328 293.693L326.063 292.712C324.743 291.543 323.442 289.6 323.583 287.75C323.702 286.179 324.667 284.78 325.956 283.903C327.261 283.016 329.289 282.649 330.812 283.145C332.86 283.814 333.624 285.801 334.469 287.574C334.149 289.558 333.896 291.458 332.182 292.75C330.766 293.817 329.019 293.671 327.328 293.693Z"/>
	<path fill="#F6A43B" d="M196.492 282.67C196.587 286.485 196.76 289.969 194.002 293C192.063 295.131 189.666 296.052 186.812 296.094C183.153 296.149 180.258 294.942 177.737 292.25L176.573 290.722C179.245 291.38 185.615 292.242 188.273 291.505C189.598 291.138 191.802 288.751 192.423 287.638C193.552 285.616 193.863 284.06 196.071 282.874L196.492 282.67Z"/>
	<path fill="#23ADAA" d="M632.056 249.684C631.001 249.212 630.13 248.767 629.272 247.977C627.895 246.711 627.036 244.89 627.051 243C627.061 241.644 627.872 240.265 628.797 239.33C630.219 237.892 631.696 237.15 633.75 237.47C636.396 237.882 637.831 240.693 639.074 242.75C638.627 245.108 638.393 247.068 636.231 248.424C634.918 249.247 633.57 249.504 632.056 249.684Z"/>
	<path fill="#6148B2" d="M764.179 273.765C766.74 275.929 769.408 277.833 769.693 281.475C769.846 283.431 769.272 285.506 767.94 286.98C766.468 288.609 764.634 289.452 762.43 289.446C758.931 289.435 755.598 287.23 753.25 284.832L752.941 282.793L754.933 283.295C756.725 283.608 758.847 283.243 760.281 282.073C763.146 279.737 763.824 277.304 764.179 273.765Z"/>
	<path fill="#FBB12B" d="M458.683 149.414C456.675 148.897 454.562 147.65 453.544 145.791C452.593 144.054 452.27 141.343 453.161 139.508C453.846 138.096 455.146 137.156 456.575 136.564C458.148 135.912 460.137 135.75 461.703 136.492C464.161 137.656 464.912 140.194 465.862 142.537C465.105 144.709 464.228 147.546 462.019 148.71C461.052 149.219 459.757 149.292 458.683 149.414Z"/>
	<path fill="#C73" d="M143.44 752.03C144.896 752.01 146.759 751.837 148.153 752.276C149.879 752.82 151.498 754.645 152.352 756.178C153.327 757.928 153.555 759.317 153.022 761.25C152.203 764.222 150.283 765.764 147.694 767.243L144.75 767.304C142.291 767.037 140.216 765.319 138.901 763.322C137.764 761.596 137.596 759.412 138.104 757.426C138.816 754.645 141.105 753.34 143.44 752.03Z"/>
	<path fill="#23ADAA" d="M752.941 282.793L752 282.012C750.572 280.894 749.407 280.056 748.525 278.407C747.497 276.486 747.267 274.291 748.096 272.25C748.918 270.227 750.889 268.334 752.878 267.477C755.013 266.557 757.674 266.722 759.755 267.712C762.366 268.953 763.301 271.165 764.179 273.765C763.824 277.304 763.146 279.737 760.281 282.073C758.847 283.243 756.725 283.608 754.933 283.295L752.941 282.793Z"/>
	<path fill="#6148B2" d="M655.729 294.816C658.81 296.142 660.021 298.12 661.342 301.25C662.954 305.069 662.517 308.53 660.756 312.2C659.26 315.316 657.054 317.452 653.762 318.593C651.378 319.42 649.455 319.586 647 319.069L646.403 318.949C643.369 318.282 638.787 315.612 637.032 313L636.267 311.57C639.388 312.584 642.426 313.329 645.726 312.69C649.461 311.966 652.553 309.545 654.515 306.307C656.739 302.639 656.682 298.844 655.729 294.816Z"/>
	<path fill="#23ADAA" d="M156.615 360.545L159.75 360.513C162.441 360.687 165.1 362.386 166.664 364.516C168.117 366.495 168.474 369.216 167.948 371.594C167.304 374.507 164.883 376.111 162.527 377.608L158.5 377.549C156.285 377.307 154.261 375.821 152.917 374.101C151.265 371.989 150.539 369.673 151.053 367C151.668 363.806 154.007 362.122 156.615 360.545Z"/>
	<path fill="#FBB12B" d="M202.99 263.368C201.978 262.448 200.987 261.424 200.212 260.291C198.947 258.443 198.726 256.028 199.218 253.886C199.87 251.05 201.859 248.302 204.362 246.811C206.533 245.518 208.853 245.281 211.25 245.999C214.589 246.998 216.292 249.15 217.929 252.101L217.407 252.816C214.493 256.951 214.508 261.366 208.555 262.681L202.99 263.368Z"/>
	<path fill="#BD6479" d="M871.519 700.51C873.177 700.449 875.041 700.285 876.608 700.918C878.78 701.794 880.362 703.608 881.235 705.75C882.145 707.983 881.847 711.174 880.812 713.306C879.531 715.943 877.295 717.608 874.594 718.567C873.41 718.579 872.247 718.571 871.088 718.297C868.779 717.752 866.741 716.134 865.598 714.05C864.49 712.034 864.026 709.021 864.799 706.802C865.967 703.446 868.513 701.985 871.519 700.51Z"/>
	<path fill="#BD6479" d="M828.047 704.531C830.028 704.468 831.843 704.357 833.697 705.191L834.25 705.458C836.272 706.419 837.455 707.574 838.425 709.619C839.409 711.692 839.352 714.422 838.474 716.513C837.273 719.371 834.738 720.839 832.039 722.039C830.615 722.092 828.89 722.244 827.512 721.835C825.303 721.18 823.152 719.283 822.111 717.25C821.117 715.31 820.878 712.633 821.628 710.574C822.848 707.224 824.957 705.94 828.047 704.531Z"/>
	<path fill="#6148B2" d="M410.092 273.665C413.638 275.424 415.072 278.79 416.275 282.386C417.781 286.885 417.094 292.255 414.813 296.354C412.716 300.123 409.31 302.801 405.109 303.842C399.204 305.306 393.287 303.878 388.221 300.652C386.555 299.591 385.181 298.074 384.533 296.193L385.079 296.459C390.217 298.808 396.112 299.974 401.547 297.791C406.284 295.889 409.691 291.708 411.433 287C413.002 282.757 411.817 277.64 410.092 273.665Z"/>
	<path fill="#C73" d="M108.97 689.481C115.315 689.43 121.571 693.422 126.247 697.455C128.26 699.191 131.053 701.606 130.964 704.5C130.91 706.255 129.534 707.295 128.352 708.394C121.636 707.764 112.423 703.541 107.769 698.434C106.068 696.568 105.426 695.29 105.505 692.75C106.29 691.069 107.439 690.455 108.97 689.481Z"/>
	<path fill="#FBB12B" d="M176.573 290.722C174.926 287.858 173.89 284.724 174.858 281.417C175.574 278.972 177.453 277.034 179.648 275.829C182.549 274.235 186.448 273.693 189.619 274.825C193.539 276.223 194.958 279.157 196.492 282.67L196.071 282.874C193.863 284.06 193.552 285.616 192.423 287.638C191.802 288.751 189.598 291.138 188.273 291.505C185.615 292.242 179.245 291.38 176.573 290.722Z"/>
	<path fill="#FBB12B" d="M908.025 648.169C911.451 651.217 914.076 654.566 914.353 659.364C914.579 663.279 913.143 666.639 910.575 669.551C907.906 672.578 904.017 674.283 900 674.386C896.535 674.476 893.019 672.644 890.613 670.251C889.303 668.949 888.043 667.18 887.156 665.569C889.473 665.498 891.958 665.989 894.269 666.211C897.032 664.687 899.948 663.153 902.284 661.01C906.865 656.808 907.812 654.261 908.025 648.169Z"/>
	<path fill="#FBEDA3" d="M887.156 665.569L886.967 664.987C885.555 660.519 885.715 657.165 887.951 653C889.774 649.605 892.729 647.07 896.457 646.02C900.859 644.779 904.224 645.94 908.025 648.169C907.812 654.261 906.865 656.808 902.284 661.01C899.948 663.153 897.032 664.687 894.269 666.211C891.958 665.989 889.473 665.498 887.156 665.569Z"/>
	<path fill="#FBEDA3" d="M569.933 303.777C568.938 302.289 567.946 300.514 567.582 298.75C566.903 295.459 567.781 291.988 569.656 289.25C571.482 286.583 574.555 284.632 577.75 284.153C582.04 283.511 585.227 284.563 588.606 287.163C588.859 291.499 589.758 294.921 586.706 298.53C583.92 301.824 580.127 303.712 575.801 303.979L569.933 303.777Z"/>
	<path fill="#6148B2" d="M930.634 524.063C933.292 525.175 936.371 527.775 937.5 530.5C938.139 532.042 937.987 533.198 937.785 534.797C935.833 537.994 933.636 539.161 930.203 540.373C929.953 540.461 928.345 540.898 928.197 541.056C928.074 541.189 927.778 542.972 927.734 543.174C926.472 548.966 925.455 557.045 918.25 558.458C914.481 559.197 910.46 558.035 907.426 555.75C904.816 553.783 903.323 551.96 902.328 548.852L902.811 549.267C905.22 551.13 908.101 552.218 911.168 551.723C919.683 550.349 918.883 541.894 922.879 536.598C924.449 534.518 928.059 533.739 929.773 531.247C931.51 528.719 931.227 526.978 930.634 524.063Z"/>
	<path fill="#6148B2" d="M268.956 306.699C272.547 308.376 274.696 312.175 276.099 315.781L276.516 317L276.756 317.69C278.441 322.875 277.582 329.176 275.067 333.928C272.623 338.543 268.296 341.849 263.295 343.282C256.463 345.241 250.207 343.651 244.161 340.182C241.79 338.822 240.994 337.902 240.168 335.279C246.128 337.974 252.126 339.355 258.451 336.832C263.559 334.795 268.291 329.955 270.33 324.891C272.87 318.584 271.529 312.655 268.956 306.699Z"/>
	<path fill="#6148B2" d="M929.712 450.452C932.839 451.713 934.749 455.019 936.054 458C938.198 462.896 938.1 469.12 936.146 474.069C934.108 479.231 930.827 482.84 925.601 484.942C919.883 487.243 913.264 487.011 907.703 484.385C904.864 483.044 902.537 480.966 901.116 478.164C906.303 480.076 911.383 480.637 916.75 479.099C922.064 477.576 926.771 474.238 929.33 469.25C932.531 463.008 931.999 456.79 929.712 450.452Z"/>
	<path fill="#BD6479" d="M867.669 781.074C870.336 780.911 872.387 780.815 874.881 781.91C877.324 782.983 879.405 785.214 880.348 787.708C881.629 791.098 881.548 794.494 879.857 797.75C878.268 800.811 875.44 802.457 872.312 803.587C870.421 803.862 868.592 803.907 866.731 803.386C863.537 802.491 861.153 800.403 859.624 797.495C858.347 795.066 858.062 792.601 858.944 789.969C860.504 785.31 863.417 783.072 867.669 781.074Z"/>
	<path fill="#BD6479" d="M733.61 147.578C735.31 147.51 737.742 147.158 739.367 147.662C742.757 148.713 745.645 150.623 747.21 153.906C748.577 156.771 748.716 159.799 747.54 162.75C746.034 166.532 743.4 168.454 739.799 170.085C737.847 170.387 736.061 170.492 734.111 170.065C730.98 169.38 728.189 167.112 726.586 164.37C724.984 161.63 724.544 158.814 725.514 155.74C726.88 151.412 729.813 149.508 733.61 147.578Z"/>
	<path fill="#6148B2" d="M588.606 287.163C590.611 289.086 592.378 291.258 593.381 293.884C595.724 294.658 597.09 295.506 598.221 297.769C599.713 300.752 600.566 304.872 599.429 308.096C598.204 311.571 595.541 314.982 592.146 316.527C589.304 317.819 585.305 317.925 582.398 316.786C578.98 315.446 576.262 312.69 573.851 310.017C573.733 309.233 573.576 308.459 573.568 307.665C572.229 306.493 571.099 305.116 569.933 303.777L575.801 303.979C580.127 303.712 583.92 301.824 586.706 298.53C589.758 294.921 588.859 291.499 588.606 287.163Z"/>
	<defs>
		<linearGradient id="gradient_0" gradientUnits="userSpaceOnUse" x1="591.66516" y1="301.5946" x2="574.49512" y2="296.34268">
			<stop offset="0" stop-color="#F8A12C"/>
			<stop offset="1" stop-color="#FABD32"/>
		</linearGradient>
	</defs>
	<path fill="url(#gradient_0)" d="M588.606 287.163C590.611 289.086 592.378 291.258 593.381 293.884C593.879 297.959 593.826 301.523 591.187 304.965C589.328 307.39 586.324 309.575 583.236 309.957C579.649 310.401 576.67 309.324 573.568 307.665C572.229 306.493 571.099 305.116 569.933 303.777L575.801 303.979C580.127 303.712 583.92 301.824 586.706 298.53C589.758 294.921 588.859 291.499 588.606 287.163Z"/>
	<path fill="#6148B2" d="M339.656 206.168C343.218 207.961 345.171 212.817 346.336 216.416C348.794 224.005 348.66 232.697 344.991 239.889C341.898 245.954 336.369 250.724 329.844 252.771C325.072 254.269 319.155 254.634 314.324 253.21L313.608 253.003C309.602 251.787 303.158 248.375 301.135 244.6L300.539 243.407L302.997 244.522C309.982 247.583 318.41 247.819 325.5 244.914C332.341 242.111 337.63 236.242 340.307 229.409C343.512 221.23 343.072 214.145 339.656 206.168Z"/>
	<path fill="#23ADAA" d="M630.76 305.248L630.25 303.611C629.363 299.928 629.325 295.642 631.516 292.363C633.464 289.447 636.938 287.143 640.406 286.546C644.469 285.846 647.568 286.719 650.943 288.987C652.928 290.818 654.282 292.563 655.729 294.816C656.682 298.844 656.739 302.639 654.515 306.307C652.553 309.545 649.461 311.966 645.726 312.69C642.426 313.329 639.388 312.584 636.267 311.57C633.749 309.661 632.314 307.954 630.76 305.248Z"/>
	<path fill="#23ADAA" d="M101.957 468.83C101.453 479.103 98.8524 489.652 97.3918 499.854C99.6816 501.663 104.3 502.692 107.096 503.691L125.923 510.753C122.789 510.849 119.373 510.047 116.247 509.748C109.194 509.072 102.15 508.793 95.1488 507.61L82.9454 538.258L80.7478 543.237L88.035 505.745L63.4696 495.989L90.3769 498.158L101.957 468.83Z"/>
	<path fill="#23ADAA" d="M425.254 160.873C425.628 163.222 424.778 166.154 424.389 168.495C423.292 175.106 421.594 181.889 421.423 188.595C421.376 190.452 421.195 192.845 422.059 194.538C422.933 196.249 424.074 198.106 425.667 199.231C430.153 202.402 436.507 203.511 441.707 205.037L464.414 212C464.129 212.55 460.995 211.796 460.267 211.673C449.352 209.822 438.111 206.468 427 206.455C424.886 206.452 422.447 206.319 420.526 207.309C414.529 210.4 412.256 220.253 410.532 226.25L406.322 241.25C405.895 239.249 406.687 236.745 407.066 234.713L409.545 221.097C410.282 216.988 410.778 212.796 411.052 208.63C405.879 198.687 391.893 197.322 382.321 193.696C383.645 193.361 385.995 194.049 387.421 194.227C393.926 195.039 405.097 197.272 411.195 194.296C412.725 193.55 414.283 192.298 415.271 190.906C416.696 188.899 417.513 186.118 418.34 183.797C421.025 176.267 422.47 168.356 425.254 160.873Z"/>
	<path fill="#FBB12B" d="M882.012 265.876C884.07 270.52 884.964 275.687 886.228 280.59L891.673 301.172L930.171 300.093L893.332 308.213C894.904 316.604 895.36 325.338 896.187 333.832C896.64 338.489 897.896 344.028 897.222 348.637L886.696 309.43L849.899 311.822L885.644 301.641L882.012 265.876Z"/>
	<path fill="#C73" d="M534.71 146.048C539.949 149.064 543.869 153.2 545.549 159.148C547.14 164.779 546.653 170.014 543.647 175.113C540.782 179.971 535.933 183.806 530.415 185.154C524.045 186.711 517.482 184.837 512.109 181.347C507.583 178.406 504.431 173.046 503.098 167.922L506.128 170.077C510.468 173.044 515.273 173.887 520.406 172.817C525.356 171.786 529.996 169.075 532.75 164.771C536.6 158.754 536.184 152.697 534.71 146.048Z"/>
	<path fill="#FBB12B" d="M503.098 167.922L502.866 167.303C501.482 163.268 502.991 157.798 504.879 154.165C507.549 149.026 512.527 145.176 518.07 143.611C524.363 141.833 529.126 142.898 534.71 146.048C536.184 152.697 536.6 158.754 532.75 164.771C529.996 169.075 525.356 171.786 520.406 172.817C515.273 173.887 510.468 173.044 506.128 170.077L503.098 167.922Z"/>
	<path fill="#C73" d="M122.913 590.044L127.25 590.083C130.198 590.455 133.372 591.83 136.065 593.045C144.125 596.683 152.336 602.199 158.038 609.022C161.093 612.677 164.756 617.43 164.317 622.389C163.414 624.281 162.395 624.943 160.653 626.058L157.417 625.952C153.387 625.398 149.393 623.138 145.889 621.193C137.33 616.439 127.616 610.159 121.723 602.159C119.589 599.261 118.456 596.849 119.013 593.25C120.071 591.494 121.108 590.956 122.913 590.044Z"/>
	<path fill="#6148B2" d="M739.709 211.468C742.593 212.253 745.396 216.438 746.87 219.063C749.208 223.225 750.343 227.772 751.19 232.422C751.923 236.445 751.724 241.074 750.654 245.007L750.441 245.807C748.142 254.153 742.532 261.735 734.984 266.055C726.839 270.717 715.683 270.88 706.888 268.171C701.633 266.552 693.1 262.019 690.172 257.25C689.795 256.635 689.684 255.914 689.593 255.213L693.862 257.44C702.026 261.477 711.988 261.647 720.5 258.53C728.912 255.45 736.538 249.132 740.17 240.861C744.506 230.986 743.685 221.235 739.709 211.468Z"/>
	<path fill="#BD6479" d="M209.442 792.559C213.05 792.438 216.263 792.754 219.612 794.232C223.438 795.92 226.622 799.496 228.003 803.422C229.514 807.714 229.213 812.5 227.233 816.586C224.795 821.619 219.994 824.312 214.992 826.187C211.321 826.857 208.003 826.463 204.686 824.733C200.515 822.557 197.365 818.977 195.991 814.451C194.626 809.955 195.303 804.687 197.703 800.655C200.422 796.086 204.468 793.912 209.442 792.559Z"/>
	<path fill="#23ADAA" d="M381.316 293.291C378.972 291.314 377.249 288.353 376.528 285.38C375.417 280.802 376.383 275.661 379.006 271.75C381.577 267.916 385.605 264.917 390.2 264.088C394.446 263.322 398.645 263.914 402.254 266.307C405.634 268.262 407.798 270.587 410.092 273.665C411.817 277.64 413.002 282.757 411.433 287C409.691 291.708 406.284 295.889 401.547 297.791C396.112 299.974 390.217 298.808 385.079 296.459L384.533 296.193L381.316 293.291Z"/>
	<path fill="#23ADAA" d="M244.055 434.591C241.266 439.372 237.47 443.327 232.45 445.75C226.197 448.768 219.344 449.419 212.75 446.975C205.95 444.455 200.944 438.733 198.356 432.103C196.37 427.016 196.82 420.635 199.029 415.712C202.074 408.927 207.617 404.977 214.376 402.391C215.026 403.659 215.695 404.835 216.499 406.012C220.442 411.787 221.84 417.592 223.285 424.285C223.809 426.71 224.371 430.312 225.624 432.44C226.379 433.72 227.418 433.921 228.762 434.206C233.455 435.201 239.219 434.55 244.055 434.591Z"/>
	<path fill="#23ADAA" d="M901.33 547.583C897.552 542.996 895.201 537.948 891.79 533.25C889.567 530.189 886.329 527.626 884.609 524.243C883.765 522.582 883.304 521.053 883.986 519.25C884.083 518.994 884.379 518.526 884.536 518.307C886.624 515.394 890.817 515.374 894 514.574C894.515 514.445 896.371 514.088 896.763 513.754C897.136 513.436 897.807 511.723 898.034 511.25C899.297 508.615 900.482 505.558 903.412 504.346C910.011 501.618 911.866 511.328 915.653 514.503C917.755 516.266 921.445 517.431 923.998 518.619C926.445 519.921 927.648 520.971 929.549 523L930.634 524.063C931.227 526.978 931.51 528.719 929.773 531.247C928.059 533.739 924.449 534.518 922.879 536.598C918.883 541.894 919.683 550.349 911.168 551.723C908.101 552.218 905.22 551.13 902.811 549.267L902.328 548.852L901.33 547.583Z"/>
	<path fill="#6BA646" d="M229.341 319.568C228.721 314.93 229.354 310.916 231.53 306.742C234.186 301.649 239.102 297.822 244.619 296.27C250.511 294.612 255.564 295.797 260.826 298.59C264.398 300.638 266.761 303.246 268.956 306.699C271.529 312.655 272.87 318.584 270.33 324.891C268.291 329.955 263.559 334.795 258.451 336.832C252.126 339.355 246.128 337.974 240.168 335.279C234.087 331.136 230.969 326.814 229.341 319.568Z"/>
	<path fill="#C3A56A" d="M229.341 319.568C228.721 314.93 229.354 310.916 231.53 306.742C234.186 301.649 239.102 297.822 244.619 296.27C250.511 294.612 255.564 295.797 260.826 298.59C262.318 304.063 261.974 308.706 259.15 313.684C256.426 318.485 251.933 321.684 246.609 322.981C242.308 324.03 235.942 323.606 232.148 321.224L231.315 320.683L229.341 319.568Z"/>
	<path fill="#6BA646" d="M888.19 463.694C887.491 461.273 887.243 458.762 887.522 456.25C888.138 450.717 891.516 445.435 895.934 442.136C901.625 437.885 907.194 437.707 913.934 438.711C921.371 440.439 925.511 444.354 929.712 450.452C931.999 456.79 932.531 463.008 929.33 469.25C926.771 474.238 922.064 477.576 916.75 479.099C911.383 480.637 906.303 480.076 901.116 478.164C900.135 477.285 898.389 476.652 897.25 475.883C892.659 472.784 890.257 468.67 888.19 463.694Z"/>
	<path fill="#C3A56A" d="M888.19 463.694C887.491 461.273 887.243 458.762 887.522 456.25C888.138 450.717 891.516 445.435 895.934 442.136C901.625 437.885 907.194 437.707 913.934 438.711L913.311 439.013C912.496 439.371 911.871 439.469 911 439.561L910.928 440.002L911.484 440.343C915.595 442.898 919.152 445.597 920.303 450.578C920.963 453.436 920.703 456.224 919.038 458.649C918.138 459.959 917.146 460.879 915.926 461.87L915.451 462.267C913.061 464.193 909.728 465.08 906.75 465.527L905.968 465.655C899.627 466.634 894.308 464.952 888.19 463.694Z"/>
	<path fill="#6148B2" d="M699.197 855.929C733.579 858.261 768.081 858.56 802.352 862.594L816.566 864.744C818.423 865.104 820.696 865.408 822.108 866.758L822.523 867.25C821.93 868.595 821.135 868.959 819.75 869.517C813.632 871.982 805.527 872.571 799.031 873.277L709 879.02L679.651 880.093C677.079 880.122 673.899 880.581 671.408 880.112C675.023 877.391 679.526 875.736 683.255 872.997L684 872.443C690.286 867.837 694.924 862.374 699.197 855.929Z"/>
	<path fill="#23ADAA" d="M288.087 229.355L287.993 229.182C284.558 222.377 283.505 215.614 285.995 208.25C288.43 201.05 293.505 195.09 300.394 191.838C306.319 189.041 313.681 188.372 319.891 190.647C328.827 193.185 334.875 198.189 339.656 206.168C343.072 214.145 343.512 221.23 340.307 229.409C337.63 236.242 332.341 242.111 325.5 244.914C318.41 247.819 309.982 247.583 302.997 244.522L300.539 243.407C294.998 239.594 290.523 235.774 288.087 229.355Z"/>
	<path fill="#F6A43B" d="M416.189 415.91L321.822 339.91L377.474 339.736L376.269 340.25C378.546 343.125 381.317 345.496 383.865 348.117L393.304 358.094C395.763 360.597 398.82 363.313 400.648 366.293C400.85 367.035 401.019 368.389 401.387 369.014C402.569 371.02 405.604 372.828 407.5 373.993L417.773 380.142L445.122 395.461C438.593 397.211 423.907 400.104 420.47 406.251L416.189 415.91Z"/>
	<path fill="#F6A43B" d="M524.888 339.942C536.226 338.642 548.626 339.601 560.067 339.6L636.924 339.521L548.95 408.079L541.636 413.774C538.692 407.074 538.278 399.008 532.497 393.769C529.276 390.85 525.806 390.486 521.592 390.76L546.802 374.724C548.994 373.198 549.428 372.493 549.866 370.021L549.936 369.911C552.193 366.666 552.85 362.488 553.74 358.686L557.866 340.327C555.257 339.625 551.664 340.088 548.951 340.091C540.96 340.1 532.864 340.409 524.888 339.942Z"/>
	<path fill="#BD6479" d="M698.416 192.388C703.874 191.337 708.798 191.135 714.25 192.335C724.009 194.485 731.107 198.363 736.743 206.813C737.701 208.249 738.554 210.225 739.709 211.468C743.685 221.235 744.506 230.986 740.17 240.861C736.538 249.132 728.912 255.45 720.5 258.53C711.988 261.647 702.026 261.477 693.862 257.44L689.593 255.213C688.371 253.682 685.98 252.289 684.501 250.863C678.151 244.741 675.187 238.284 673.485 229.674C672.775 221.76 673.684 213.452 677.974 206.594C682.692 199.052 689.914 194.44 698.416 192.388Z"/>
	<path fill="#FBB12B" d="M377.474 339.736L435.448 339.596C436.956 338.066 437.958 334.375 438.8 332.34L445.897 315.611L469.317 262.351C472.472 255.215 475.062 247.356 478.901 240.578C484.757 251.555 489.42 263.735 494.269 275.222L514.165 321.08L519.784 333.679C520.688 335.683 521.478 338.036 522.9 339.706L524.888 339.942C532.864 340.409 540.96 340.1 548.951 340.091C551.664 340.088 555.257 339.625 557.866 340.327L553.74 358.686C552.85 362.488 552.193 366.666 549.936 369.911L549.866 370.021C541.461 365.512 515.712 372.553 505.132 372.535L504.652 372.02C502.776 370.219 498.936 370.053 496.466 370.045L486.686 335.851C484.716 329.669 483.594 323.448 478.99 318.554C477.662 320.26 476.036 322.098 475.137 324.067C472.859 329.055 471.697 335.529 470.245 340.866L463.169 366.544C462.668 368.567 461.405 371.204 461.478 373.2L461.562 373.807C459.083 374.216 456.935 373.892 454.477 373.56L424.574 368.795C416.662 367.591 408.677 365.942 400.648 366.293C398.82 363.313 395.763 360.597 393.304 358.094L383.865 348.117C381.317 345.496 378.546 343.125 376.269 340.25L377.474 339.736Z"/>
	<path fill="#F6A43B" d="M454.477 373.56C455.978 372.347 457.481 370.813 459.552 371.031C460.347 371.115 460.313 370.964 460.717 371.484C461.27 372.196 461.366 372.951 461.562 373.807C459.083 374.216 456.935 373.892 454.477 373.56Z"/>
	<defs>
		<linearGradient id="gradient_1" gradientUnits="userSpaceOnUse" x1="219.99365" y1="791.73999" x2="288.96652" y2="715.71704">
			<stop offset="0" stop-color="#BD7129"/>
			<stop offset="1" stop-color="#A85A2C"/>
		</linearGradient>
	</defs>
	<path fill="url(#gradient_1)" d="M137.291 660.966L138.524 659.746C146.498 661.643 154.38 666.854 161.504 670.811L200.506 693.319L248.07 719.439L271.751 730.278L292.711 738.233C299.075 740.619 306.321 743.401 311.5 747.899C312.321 748.613 313.007 749.468 313.602 750.376C314.659 751.987 314.844 753.867 314.515 755.75C314.146 757.868 312.358 759.855 310.592 760.979C308.751 762.151 306.057 762.314 304.014 761.667C298.101 759.795 287.588 749.11 281.563 751.75C280.976 752.794 280.889 753.4 281.352 754.563C282.987 758.665 288.635 761.376 292.25 763.498L301.231 768.923C316.238 778.072 331.144 787.269 347.005 794.907C357.524 799.973 368.484 804.684 379.517 808.523C386.297 810.883 395.06 812.395 401.094 816.087L400.6 818.169C373.773 817.382 347.509 818.742 320.852 821.674L286.018 825.784C278.629 826.636 270.523 828.028 263.094 827.393C259.068 827.048 254.902 825.434 252.353 822.193C250.761 820.169 250.189 817.963 250.553 815.411C250.912 812.894 253.054 809.878 255.074 808.393C262.515 802.922 275.37 807.375 283.671 808.798C289.204 809.747 295.765 810.794 300.543 807.17C302.968 805.33 304.61 802.225 304.94 799.22C305.462 794.455 302.5 789.832 299.195 786.656C294.266 781.919 288.195 778.316 282.319 774.893C267.783 766.423 252.26 759.795 236.995 752.794L183.795 729.177L165.069 721.499C162.263 720.335 157.335 718.741 155.488 716.25C154.552 714.987 154.591 714.416 154.848 712.918C156.073 711.874 156.809 711.356 158.5 711.462C160.516 711.589 162.969 712.88 164.831 713.686C171.462 716.555 179.63 721.272 187.059 720.419C189.574 720.129 192.167 718.851 193.75 716.844C195.087 715.148 195.285 712.992 194.971 710.897C194.002 704.421 188.188 698.308 183.611 693.979C169.588 680.711 153.097 671.802 137.291 660.966Z"/>
	<path fill="#FBEDA3" d="M461.562 373.807L461.478 373.2C461.405 371.204 462.668 368.567 463.169 366.544L470.245 340.866C471.697 335.529 472.859 329.055 475.137 324.067C476.036 322.098 477.662 320.26 478.99 318.554C483.594 323.448 484.716 329.669 486.686 335.851L496.466 370.045C498.936 370.053 502.776 370.219 504.652 372.02L505.132 372.535C515.712 372.553 541.461 365.512 549.866 370.021C549.428 372.493 548.994 373.198 546.802 374.724L521.592 390.76C525.806 390.486 529.276 390.85 532.497 393.769C538.278 399.008 538.692 407.074 541.636 413.774C542.964 418.53 545.521 423.094 547.524 427.605L561.387 458.715C565.423 467.929 570.808 477.845 573.444 487.509C566.166 487.496 558.797 486.707 551.52 486.356L536.195 485.483C532.611 485.283 528.886 485.289 525.377 484.518L442.648 481.059C439.534 481.298 436.164 480.8 433.043 480.569L393.11 478.962L416.189 415.91L420.47 406.251C423.907 400.104 438.593 397.211 445.122 395.461L417.773 380.142L407.5 373.993C405.604 372.828 402.569 371.02 401.387 369.014C401.019 368.389 400.85 367.035 400.648 366.293C408.677 365.942 416.662 367.591 424.574 368.795L454.477 373.56C456.935 373.892 459.083 374.216 461.562 373.807Z"/>
	<path fill="#F6A43B" d="M496.466 370.045C498.936 370.053 502.776 370.219 504.652 372.02L505.132 372.535L499.25 372.919C497.764 372.673 497.227 371.189 496.466 370.045Z"/>
	<path fill="#C73" d="M445.122 395.461C447.533 396.691 449.614 397.733 451.494 399.75C451.908 401.126 451.762 401.964 451.344 403.289C450.246 406.773 448.34 410.133 446.978 413.544L434.637 446.012C434.242 447.212 433.259 449.475 434.794 450.185C436.352 450.906 438.251 450.732 439.801 450.059C443.691 448.37 447.522 445.114 450.96 442.632C450.938 445.919 448.936 449.056 447.484 451.94L437.561 470.723C435.913 473.9 433.885 477.064 433.043 480.569L393.11 478.962L416.189 415.91L420.47 406.251C423.907 400.104 438.593 397.211 445.122 395.461Z"/>
	<path fill="#FBB12B" d="M521.592 390.76C525.806 390.486 529.276 390.85 532.497 393.769C538.278 399.008 538.692 407.074 541.636 413.774C542.964 418.53 545.521 423.094 547.524 427.605L561.387 458.715C565.423 467.929 570.808 477.845 573.444 487.509C566.166 487.496 558.797 486.707 551.52 486.356L536.195 485.483C532.611 485.283 528.886 485.289 525.377 484.518L442.648 481.059C439.534 481.298 436.164 480.8 433.043 480.569C433.885 477.064 435.913 473.9 437.561 470.723L447.484 451.94C448.936 449.056 450.938 445.919 450.96 442.632C460.302 433.884 471.875 428.502 480.536 418.826C485.881 421.733 490.055 425.617 494.637 429.552L508.058 440.776C513.542 445.36 517.837 448.902 524.651 451.354C523.212 444.1 519.98 437.912 517.814 430.921L509.21 411.3C507.775 407.998 505.588 404.148 505.473 400.5C506.681 398.684 509.08 397.826 510.965 396.813L521.592 390.76Z"/>
	<path fill="#23ADAA" d="M442.648 481.059L482.052 456.993L525.377 484.518L442.648 481.059Z"/>
	<path fill="#C73" d="M521.592 390.76C525.806 390.486 529.276 390.85 532.497 393.769C538.278 399.008 538.692 407.074 541.636 413.774C542.964 418.53 545.521 423.094 547.524 427.605L561.387 458.715C558.419 460.789 555.468 465.638 551.521 465.564C547.077 465.482 542.416 465.906 538.021 465.188C537.495 465.102 535.134 464.739 534.791 464.387C534.313 463.898 533.83 462.354 533.527 461.683L529.747 453.029C526.252 445.739 522.474 437.493 517.814 430.921L509.21 411.3C507.775 407.998 505.588 404.148 505.473 400.5C506.681 398.684 509.08 397.826 510.965 396.813L521.592 390.76Z"/>
	<path fill="#FBB12B" d="M137.463 556.606L127.25 546.877C124.929 544.346 123.293 541.491 123.492 538C124.377 536.615 124.898 535.709 126.599 535.179C138.149 531.579 181.307 571.284 193.016 578.807C197.196 581.493 202.223 584.018 207.314 582.725C210.051 582.03 212.287 580.286 213.676 577.845C229.089 550.777 143.743 477.345 136.223 446.886C135.624 444.457 135.857 443.254 137.095 441.25C138.057 440.645 138.846 440.147 140.001 440.04C148.487 439.254 159.875 447.828 166.591 452.226C196.058 471.523 222.29 495.101 249.363 517.512C257.636 524.362 265.99 531.283 274.759 537.496C278.769 540.337 283.165 543.572 287.773 545.365C290.655 546.487 293.509 547.008 296.599 546.614C299.022 546.306 301.458 545.022 302.898 543.011C304.02 541.443 304.441 539.376 304.806 537.522C306.466 529.092 303.902 521.731 301.067 513.884L293.137 492.605C291.549 488.359 289.687 484.203 288.765 479.75C289.232 478.13 289.99 478.073 291.409 477.244L302.574 507.092L364.862 699.064L363.75 699.458C345.027 689.719 328.37 675.998 312.741 661.962L268.997 619.098C268.905 624.102 268.062 631.094 265.458 635.453L266.83 637.75C268.095 640.297 268.154 642.388 267.264 645.059C266.483 647.401 264.666 650.668 262.264 651.666C259.295 652.9 255.093 651.444 252.538 649.85C246.182 645.886 240.665 639.416 235.002 634.437C207.398 610.16 181.167 583.661 150.033 563.77C146.113 561.266 141.87 558.118 137.463 556.606Z"/>
	<path fill="#B15A30" d="M265.458 635.453C262.334 631.391 258.55 628.003 254.723 624.628C250.324 620.747 242.847 616.051 242.164 609.743C241.97 607.953 242.264 606.012 243.53 604.632C244.855 603.188 246.619 602.257 248.599 602.264C256.002 602.292 264.164 613.893 268.997 619.098C268.905 624.102 268.062 631.094 265.458 635.453Z"/>
	<path fill="#C73" d="M137.463 556.606C141.87 558.118 146.113 561.266 150.033 563.77C181.167 583.661 207.398 610.16 235.002 634.437C240.665 639.416 246.182 645.886 252.538 649.85C255.093 651.444 259.295 652.9 262.264 651.666C264.666 650.668 266.483 647.401 267.264 645.059C268.154 642.388 268.095 640.297 266.83 637.75L265.458 635.453C268.062 631.094 268.905 624.102 268.997 619.098L312.741 661.962C328.37 675.998 345.027 689.719 363.75 699.458L364.862 699.064L371.135 716.759C371.506 717.775 373.289 721.418 373.199 722.369C373.02 724.254 371.015 727.67 370.461 729.75L370.223 730.612C369.146 734.742 369.223 739.549 369.862 743.75C371.417 753.982 376.856 763.052 385.131 769.33C389.763 772.845 394.69 774.677 400.205 776.322C405.579 777.925 412.164 777.289 417.751 777.149C423.316 777.009 429.043 777.108 434.578 776.653L438.06 776.807C434.786 778.099 431.175 779.038 428.035 780.575C417.422 785.767 408.768 796.392 404.136 807.096C402.897 809.96 401.694 813.017 401.094 816.087C395.06 812.395 386.297 810.883 379.517 808.523C368.484 804.684 357.524 799.973 347.005 794.907C331.144 787.269 316.238 778.072 301.231 768.923L292.25 763.498C288.635 761.376 282.987 758.665 281.352 754.563C280.889 753.4 280.976 752.794 281.563 751.75C287.588 749.11 298.101 759.795 304.014 761.667C306.057 762.314 308.751 762.151 310.592 760.979C312.358 759.855 314.146 757.868 314.515 755.75C314.844 753.867 314.659 751.987 313.602 750.376C313.007 749.468 312.321 748.613 311.5 747.899C306.321 743.401 299.075 740.619 292.711 738.233L271.751 730.278L248.07 719.439L200.506 693.319L161.504 670.811C154.38 666.854 146.498 661.643 138.524 659.746L137.291 660.966L117.35 646.777C113.491 643.784 109.618 640.949 106.908 636.799C106.002 635.414 105.519 634.009 106.153 632.36C106.677 630.998 108.18 629.771 109.432 629.099C111.246 628.125 113.982 628.23 115.94 628.764C123.878 630.931 131.415 635.204 138.919 638.52C151.845 644.233 164.893 649.505 178.5 653.375C187.033 655.801 198.731 658.284 206.858 653.472C209.925 651.657 211.662 648.717 212.305 645.25C215.099 630.185 183.513 601.105 173 590.986L154.51 573.321C148.997 568.203 142.1 563.176 137.744 557.018L137.463 556.606Z"/>
	<path fill="#6148B2" d="M438.06 776.807C440.273 776.172 443.42 776.314 445.755 776.203C452.738 775.872 459.99 775.705 466.95 776.424C471.664 778.303 476.555 780.111 480.908 782.747C490.216 788.384 498.078 798.995 502.306 808.892L504.99 817.003L601.69 819.112C600.103 832.061 601.498 840.857 606.791 852.55C615.075 866.446 625.604 876.33 641.263 881.459L452.604 883.329C442.098 884.097 431.608 883.193 421.105 883.078L282.125 877.778L250.335 874.785C245.206 874.057 239.411 873.316 234.621 871.259C233.304 870.694 232.084 870.079 231.522 868.75C237.151 864.104 248.397 863.209 255.504 862.22C268.099 860.468 280.797 859.754 293.48 858.968L344.982 856.284L406.851 853.537C400.519 841.447 398.7 831.582 400.6 818.169L401.094 816.087C401.694 813.017 402.897 809.96 404.136 807.096C408.768 796.392 417.422 785.767 428.035 780.575C431.175 779.038 434.786 778.099 438.06 776.807Z"/>
	<path fill="#6148B2" d="M504.99 817.003L601.69 819.112C600.103 832.061 601.498 840.857 606.791 852.55L500.907 852.327C503.789 845.222 506.378 837.494 506.455 829.759C506.497 825.485 505.685 821.204 504.99 817.003Z"/>
	<path fill="#10517D" d="M438.06 776.807C440.273 776.172 443.42 776.314 445.755 776.203C452.738 775.872 459.99 775.705 466.95 776.424C471.664 778.303 476.555 780.111 480.908 782.747C490.216 788.384 498.078 798.995 502.306 808.892L504.99 817.003C505.685 821.204 506.497 825.485 506.455 829.759C506.378 837.494 503.789 845.222 500.907 852.327C494.107 865.58 482.823 875.553 468.5 880.068C464.275 881.4 459.982 882.117 455.611 882.758C451.343 882.107 447.128 881.998 442.796 881.162C431.078 878.901 421.257 872.508 413.675 863.33C411.16 860.285 409.063 856.811 406.851 853.537C400.519 841.447 398.7 831.582 400.6 818.169L401.094 816.087C401.694 813.017 402.897 809.96 404.136 807.096C408.768 796.392 417.422 785.767 428.035 780.575C431.175 779.038 434.786 778.099 438.06 776.807Z"/>
	<path fill="#23ADAA" d="M451.422 788.705C460.357 787.953 470.236 791.333 477.271 796.814C485.176 802.975 491.408 813.569 492.399 823.561C493.481 834.455 490.853 845.234 483.791 853.75C476.246 862.847 466.437 866.627 454.938 867.676L448.5 867.469C438.051 866.495 428.111 859.946 421.797 851.795C416.166 844.525 412.461 834.105 413.777 824.845L413.904 824C415.073 815.919 417.824 808.993 423.079 802.687C430.555 793.718 440.002 789.807 451.422 788.705Z"/>
	<path fill="#F6EFF3" d="M449.199 814.549C451.934 814.407 455.156 814.126 457.75 815.12C461.362 816.502 464.111 819.314 465.563 822.884C467.159 826.808 466.983 831.418 465.179 835.225C463.191 839.422 460.014 841.461 455.762 842.955C453.03 843.173 450.065 843.179 447.492 842.146C443.658 840.608 440.291 837.362 438.939 833.405C437.784 830.024 438.411 825.162 439.943 822.011C441.893 817.998 445.08 815.91 449.199 814.549Z"/>
	<path fill="#23ADAA" d="M548.95 408.079C556.779 418.736 567.533 431.477 580.5 435.624L581.223 435.867C586.268 437.474 592.921 436.714 597.535 434.21C603.545 430.95 608.642 425.452 612.813 420.144C619.838 411.202 625.478 401.055 631.306 391.314C644.717 368.902 656.958 345.602 671.558 323.943C676.565 316.517 681.957 307.765 689.197 302.349C692.54 299.847 696.54 298.326 700.697 299.408C702.831 299.963 704.625 301.544 705.693 303.441C707.331 306.352 706.781 310.435 705.756 313.476C702.881 322.015 696.085 329.515 690.272 336.216C676.76 351.79 658.937 369.485 653.947 390.031C652.452 396.189 651.969 401.731 654.692 407.618C656.763 412.096 660.076 415.075 664.766 416.59C671.059 418.622 678.116 415.963 683.626 412.934C694.557 406.925 704.128 397.855 713.112 389.28C736.734 366.733 757.755 341.649 778.372 316.386L807.873 279.767L828.364 252.661C830.707 249.715 834.636 244.041 838.916 245.088C840.056 245.368 840.796 246.043 841.334 247.047C843.119 250.376 841.126 256.087 839.859 259.472C834.741 273.15 826.749 286.386 819.654 299.133L776.925 373.898C769.343 387.537 761.385 401.346 756.533 416.25C754.039 423.91 752.704 432.039 754.373 440L754.522 440.735C755.581 445.693 758.269 450.307 762.597 453.096C767.559 456.294 774.773 456.752 780.43 455.387C800.306 450.59 816.787 434.983 830.884 420.935C834.643 416.456 838.972 412.511 842.931 408.214C848.657 402.001 854.287 393.772 861.552 389.363C863.91 387.933 865.461 387.219 868.25 387.519C869.633 388.904 870.304 389.367 870.281 391.492C870.22 397.091 862.976 404.897 859.83 409.563L817.548 469L801.379 490.499C798.104 494.965 794.601 499.625 792.14 504.591C790.238 508.43 788.243 513.575 789.75 517.807C790.825 519.033 791.354 519.693 793 520.075L793.979 520.328C799.232 521.46 806.866 516.116 810.947 513.037C818.051 507.678 840.052 486.675 847.451 487.574C848.219 487.667 848.859 488.683 849.386 489.25C850.848 498.051 825.39 534.767 819.128 543.533C814.461 550.064 808.204 557.027 804.907 564.319C804.207 565.868 803.269 568.203 803.484 569.947C803.639 571.218 804.188 572.241 805.191 573.052C808.137 575.439 813.058 574.899 816.507 574.205C825.611 572.373 834.816 568.876 843.212 564.944C849.704 561.904 856.955 557.708 863.984 556.139C865.906 555.71 868.031 555.856 869.644 557.009C870.408 557.555 870.651 558.172 871.038 559C870.617 567.027 862.084 576.237 856.425 581.378C853.644 583.905 848.905 588.259 845 588.155C844.247 587.523 843.927 587.549 843.804 586.511C843.414 583.221 846.756 578.419 848.406 575.638C830.368 582.35 813.559 594.999 797.935 606.097C793.408 609.313 788.192 614.445 783.186 616.469C787.066 609.267 794.545 599.433 794.75 591.139C793.824 590.335 794.278 590.434 793.077 590.509C790.575 590.665 787.662 592.478 785.566 593.784C776.527 599.416 768.396 607.299 761.799 615.629L753.369 627.603C745.251 635.169 738.601 643.364 732.75 652.794C730.213 656.883 728.011 661.331 725.228 665.246C723.989 662.998 722.751 660.641 720.75 658.992C717.611 658.125 714.786 659.123 711.898 660.378C711.85 656.532 713.149 652.159 713.944 648.375L718.464 627L734.802 548.341C737.552 535.284 741.37 521.714 742.784 508.478C742.205 505.548 741.505 502.683 739.426 500.424C738.423 499.335 736.581 497.756 735.201 497.217C733.456 496.536 729.383 496.794 727.416 496.679L703.769 495.194L573.444 487.509C570.808 477.845 565.423 467.929 561.387 458.715L547.524 427.605C545.521 423.094 542.964 418.53 541.636 413.774L548.95 408.079Z"/>
	<path fill="#6148B2" d="M630.49 412.418C632.793 412.889 634.605 413.477 635.986 415.508C638.476 419.168 639.151 424.821 638.159 429.1C637.373 432.485 635.878 434.159 633.009 436.009C630.447 435.625 628.411 434.599 626.869 432.486C624.706 429.521 624.818 425.475 625.359 422.017C625.981 418.045 627.171 414.867 630.49 412.418Z"/>
	<defs>
		<linearGradient id="gradient_2" gradientUnits="userSpaceOnUse" x1="835.58539" y1="772.26251" x2="553.26318" y2="622.67999">
			<stop offset="0" stop-color="#91549F"/>
			<stop offset="1" stop-color="#B856A8"/>
		</linearGradient>
	</defs>
	<path fill="url(#gradient_2)" d="M779.899 621.024C775.804 631.691 767.945 644.963 773.404 656.584C774.235 658.352 776.009 660.37 777.864 661.075C782.477 662.829 788.857 660.614 793.015 658.486C802.692 653.533 810.814 645.713 818.615 638.285C837.721 620.092 858.297 596.653 883.925 587.984C888.335 586.493 894.303 585.131 898.892 586.626C900.22 587.059 901.598 588.3 902.119 589.601C903.176 592.244 901.595 595.882 900.25 598.122C894.436 607.809 883.427 615.628 874.473 622.188C864.357 629.6 854.076 636.654 844.429 644.697C820.09 664.99 797.524 690.606 781.231 717.779C776.584 725.53 768.863 738.311 771.209 747.698C771.341 748.229 771.59 748.665 771.83 749.148L772.08 749.68C773.34 752.244 775.843 753.844 778.485 754.762C784.509 756.855 793.498 755.152 799.648 753.93C814.32 751.014 828.334 745.425 843.396 744.333C845.005 744.216 848.517 743.73 849.911 744.604C850.306 744.852 850.444 745.368 850.71 745.75C850.557 746.184 850.536 746.692 850.25 747.053C849.273 748.284 846.886 749.332 845.472 750.108L832.087 757.196L814.5 767.249L786.828 784.944C776.447 792.173 766.74 799.839 755.208 805.257C746.031 809.568 735.482 813.16 725.418 814.574C718.498 815.546 711.539 815.594 704.568 815.641C706.043 824.042 707.004 832.041 705.117 840.5C703.874 846.077 701.827 850.867 699.197 855.929C694.924 862.374 690.286 867.837 684 872.443L683.255 872.997C679.526 875.736 675.023 877.391 671.408 880.112C668.097 881.162 664.95 882.158 661.5 882.624L660.622 882.752C654.024 883.647 647.736 882.542 641.263 881.459C625.604 876.33 615.075 866.446 606.791 852.55C601.498 840.857 600.103 832.061 601.69 819.112L504.99 817.003L502.306 808.892C498.078 798.995 490.216 788.384 480.908 782.747C476.555 780.111 471.664 778.303 466.95 776.424C459.99 775.705 452.738 775.872 445.755 776.203C443.42 776.314 440.273 776.172 438.06 776.807L434.578 776.653L426.442 776.397C425.327 776.37 423.629 776.637 422.75 775.875C421.555 774.841 420.698 773.741 419.348 772.754C412.871 768.022 405.792 763.817 400.039 758.188C398.876 757.05 397.231 755.8 396.701 754.25L397.888 753.751L406.101 753.84C408.796 753.326 412.107 753.631 414.872 753.592L433.444 753.288L494.203 751.045L491.664 749.902L491.72 749.451C495.173 727.317 537.135 715.337 555 710.359L566 707.473C567.981 706.96 570.141 706.616 571.813 705.392C573.766 704.697 576.482 704.612 578.575 704.316L595.103 702.198L680.235 690.33C686.93 689.272 693.911 688.948 700.5 687.524C702.146 687.168 703.851 686.637 705.232 685.636C708.888 682.988 709.166 675.356 709.843 671.246L711.898 660.378C714.786 659.123 717.611 658.125 720.75 658.992C722.751 660.641 723.989 662.998 725.228 665.246C728.011 661.331 730.213 656.883 732.75 652.794C738.601 643.364 745.251 635.169 753.369 627.603L761.799 615.629C768.396 607.299 776.527 599.416 785.566 593.784C787.662 592.478 790.575 590.665 793.077 590.509C794.278 590.434 793.824 590.335 794.75 591.139C794.545 599.433 787.066 609.267 783.186 616.469L779.899 621.024Z"/>
	<path fill="#23ADAA" d="M568.296 750.36L686.476 750.331C689.872 750.411 692.578 750.198 695.161 752.757L696.16 753.859L696.544 754.259C698.473 756.448 698.253 764.2 697.896 767C697.649 768.931 696.256 770.369 694.75 771.5C693.201 772.664 690.978 772.789 689.101 772.882L622.161 773.553L504.894 775.21L479.75 775.779C475.708 775.884 470.89 775.582 466.95 776.424C459.99 775.705 452.738 775.872 445.755 776.203C443.42 776.314 440.273 776.172 438.06 776.807L434.578 776.653L426.442 776.397C425.327 776.37 423.629 776.637 422.75 775.875C421.555 774.841 420.698 773.741 419.348 772.754C412.871 768.022 405.792 763.817 400.039 758.188C398.876 757.05 397.231 755.8 396.701 754.25L397.888 753.751L406.101 753.84C408.796 753.326 412.107 753.631 414.872 753.592L433.444 753.288L494.203 751.045L568.296 750.36Z"/>
	<path fill="#10517D" d="M601.69 819.112C602.693 813.962 604.202 809.032 606.591 804.345C612.551 792.656 623.073 783.763 635.58 779.768C649.701 775.258 665.17 776.063 678.36 783C692.12 790.237 700.066 800.892 704.568 815.641C706.043 824.042 707.004 832.041 705.117 840.5C703.874 846.077 701.827 850.867 699.197 855.929C694.924 862.374 690.286 867.837 684 872.443L683.255 872.997C679.526 875.736 675.023 877.391 671.408 880.112C668.097 881.162 664.95 882.158 661.5 882.624L660.622 882.752C654.024 883.647 647.736 882.542 641.263 881.459C625.604 876.33 615.075 866.446 606.791 852.55C601.498 840.857 600.103 832.061 601.69 819.112Z"/>
	<path fill="#23ADAA" d="M649.792 792.653C658.422 791.362 667.559 793.671 674.774 798.454L675.5 798.942C679.134 801.356 683.102 805.18 685.45 808.857L685.884 809.564C688.862 814.306 690.806 819.236 691.694 824.785C693.255 834.533 690.555 845.039 684.67 852.93C678.489 861.22 669.806 866.355 659.622 867.951C653.821 868.638 648.044 868.331 642.511 866.31C632.727 862.736 624.326 855.773 619.941 846.191C615.902 837.363 614.806 826.832 618.203 817.613L618.434 817C619.423 814.295 620.716 811.515 622.353 809.134C629.082 799.345 638.298 794.629 649.792 792.653Z"/>
	<path fill="#F6EFF3" d="M651.632 814.538C653.743 814.471 656.383 814.155 658.408 814.8C662.62 816.143 665.669 818.724 667.454 822.786C668.817 825.885 669.111 829.876 667.824 833.05C665.794 838.053 662.349 840.72 657.519 842.742C655.281 843.116 652.598 843.241 650.416 842.572C646.824 841.47 643.593 838.556 641.981 835.172C640.039 831.095 640.194 827.263 641.915 823.141C643.779 818.677 647.281 816.217 651.632 814.538Z"/>
	<path fill="#BD6479" d="M753.369 627.603L761.799 615.629C768.396 607.299 776.527 599.416 785.566 593.784C787.662 592.478 790.575 590.665 793.077 590.509C794.278 590.434 793.824 590.335 794.75 591.139C794.545 599.433 787.066 609.267 783.186 616.469L779.899 621.024C778.697 622.003 777.921 622.724 777.056 624.016L767.567 637.031L703.97 724.959L693.224 739.876C690.786 743.201 688.056 746.489 686.476 750.331L568.296 750.36L494.203 751.045L491.664 749.902L491.72 749.451C495.173 727.317 537.135 715.337 555 710.359L566 707.473C567.981 706.96 570.141 706.616 571.813 705.392C573.766 704.697 576.482 704.612 578.575 704.316L595.103 702.198L680.235 690.33C686.93 689.272 693.911 688.948 700.5 687.524C702.146 687.168 703.851 686.637 705.232 685.636C708.888 682.988 709.166 675.356 709.843 671.246L711.898 660.378C714.786 659.123 717.611 658.125 720.75 658.992C722.751 660.641 723.989 662.998 725.228 665.246C728.011 661.331 730.213 656.883 732.75 652.794C738.601 643.364 745.251 635.169 753.369 627.603Z"/>
	<path fill="#6148B2" d="M753.369 627.603C751.481 631.141 749.702 634.66 748.228 638.393C744.332 648.255 739.721 663.983 728.438 667.527C727.498 667.822 726.95 667.92 725.991 667.577C725.321 666.512 725.133 666.571 725.228 665.246C728.011 661.331 730.213 656.883 732.75 652.794C738.601 643.364 745.251 635.169 753.369 627.603Z"/>
	<defs>
		<linearGradient id="gradient_3" gradientUnits="userSpaceOnUse" x1="635.8504" y1="736.1355" x2="327.94647" y2="318.69144">
			<stop offset="0" stop-color="#0A6962"/>
			<stop offset="1" stop-color="#0FD2AF"/>
		</linearGradient>
	</defs>
	<path fill="url(#gradient_3)" d="M214.376 402.391C221.135 400.549 228.548 401.314 234.643 404.833C237.214 406.318 239.905 408.588 241.598 411.068C242.054 411.735 244.449 416.756 244.817 416.982C245.702 417.526 253.35 416.882 254.817 416.836L279.626 415.695C282.435 415.538 288.508 414.534 290.97 415.629C292.358 416.246 293.426 418.208 294.034 419.5C296.885 425.561 298.659 432.421 301.003 438.723C305.51 450.845 310.85 463.057 314.24 475.545L370.207 478.086L393.11 478.962L433.043 480.569C436.164 480.8 439.534 481.298 442.648 481.059L525.377 484.518C528.886 485.289 532.611 485.283 536.195 485.483L551.52 486.356C558.797 486.707 566.166 487.496 573.444 487.509L703.769 495.194L727.416 496.679C729.383 496.794 733.456 496.536 735.201 497.217C736.581 497.756 738.423 499.335 739.426 500.424C741.505 502.683 742.205 505.548 742.784 508.478C741.37 521.714 737.552 535.284 734.802 548.341L718.464 627L713.944 648.375C713.149 652.159 711.85 656.532 711.898 660.378L709.843 671.246C709.166 675.356 708.888 682.988 705.232 685.636C703.851 686.637 702.146 687.168 700.5 687.524C693.911 688.948 686.93 689.272 680.235 690.33L595.103 702.198L578.575 704.316C576.482 704.612 573.766 704.697 571.813 705.392C570.141 706.616 567.981 706.96 566 707.473L555 710.359C537.135 715.337 495.173 727.317 491.72 749.451L491.664 749.902L494.203 751.045L433.444 753.288L414.872 753.592C412.107 753.631 408.796 753.326 406.101 753.84L397.888 753.751L396.701 754.25C397.231 755.8 398.876 757.05 400.039 758.188C405.792 763.817 412.871 768.022 419.348 772.754C420.698 773.741 421.555 774.841 422.75 775.875C423.629 776.637 425.327 776.37 426.442 776.397L434.578 776.653C429.043 777.108 423.316 777.009 417.751 777.149C412.164 777.289 405.579 777.925 400.205 776.322C394.69 774.677 389.763 772.845 385.131 769.33C376.856 763.052 371.417 753.982 369.862 743.75C369.223 739.549 369.146 734.742 370.223 730.612L370.461 729.75C371.015 727.67 373.02 724.254 373.199 722.369C373.289 721.418 371.506 717.775 371.135 716.759L364.862 699.064L302.574 507.092L291.409 477.244C290.701 473.775 288.868 469.912 287.663 466.551L276.088 434.427L244.055 434.591C239.219 434.55 233.455 435.201 228.762 434.206C227.418 433.921 226.379 433.72 225.624 432.44C224.371 430.312 223.809 426.71 223.285 424.285C221.84 417.592 220.442 411.787 216.499 406.012C215.695 404.835 215.026 403.659 214.376 402.391Z"/>
	<path fill="#23ADAA" d="M471.549 566.027C473.439 566.026 476.154 565.489 477.557 566.75L479.794 576.61C480.284 578.605 481.026 580.594 480.726 582.661C477.095 577.439 474.222 571.782 471.549 566.027Z"/>
	<path fill="#23ADAA" d="M588.377 638.88L618.056 639.133C614.499 644.864 609.562 650.124 605.254 655.328L593.739 669.111L588.377 638.88Z"/>
	<path fill="#23ADAA" d="M651.432 571.923L680.37 572.615L665.331 592.207L654.172 607.394L651.432 571.923Z"/>
	<path fill="#23ADAA" d="M432.547 500.746L461.259 502.588L471.868 547.559C467.492 547.49 462.925 547.679 458.613 546.895L432.547 500.746Z"/>
	<path fill="#117672" d="M713.568 544.8C713.781 545.393 713.872 546.13 714 546.75C713.555 547.787 713.756 548.261 713.5 549.25C713.247 550.228 713.165 551.466 712.875 552.375C712.522 553.483 712.367 554.682 712 555.75C711.613 556.876 711.726 557.98 711.375 558.997C710.779 560.727 711.156 558.901 710.867 560.344L710.25 563.5L710 564.75C709.636 565.809 709.686 566.793 709.312 567.788L709.125 568.247L709 569.25C708.72 570.303 708.839 571.029 708.622 572C708.421 572.903 707.837 573.447 707.75 574.5L707.745 575.25C707.057 576.236 706.63 577.271 706.622 578.5C706.614 579.844 706.757 579.477 706.125 580.625C706.156 581.519 706.26 582.232 705.889 583.07C705.226 584.569 705.307 586.374 705.245 588C704.339 588.916 704.351 590.812 704.287 592.086L704.245 593C703.207 594.563 703.134 597.38 702.698 599.266C702.473 600.244 701.854 600.869 701.753 601.859C701.539 603.956 700.593 606.375 700.149 608.503L697.188 622.413L670.75 622.036C668.064 622 664.843 621.42 662.25 622C659.803 622.547 657.246 621.579 654.642 622.249L653.754 622.498L653.235 622.821L653.122 622L653.5 621.622L654.497 621.497L654.5 620.75C658.342 617.886 661.856 613.619 665.259 610.198C666.156 609.297 667.456 607.598 668.497 606.997C670.261 605.981 671.382 603.855 672.997 602.997C674.483 602.209 673.036 603.472 674.466 602.045C674.945 601.566 675.353 601.145 675.888 600.716L679 598.245C680.315 597.298 681.616 595.746 682.997 594.997C684.508 594.179 683.007 595.508 684.451 594.044C684.984 593.504 685.327 593.186 685.979 592.752C692.652 588.303 698.199 581.037 705.442 577.556L705.848 577.367L713.568 544.8Z"/>
	<path fill="#BD6479" d="M495.289 643.123L505.084 689.901L454.721 695.527L453.533 689.682L495.289 643.123Z"/>
	<path fill="#FE8A43" d="M377.17 671.976L365.425 634.824L418.085 636.048L422.851 651.219C413.738 656.491 404.219 659.939 394.59 664.077L377.17 671.976Z"/>
	<path fill="#F6A43B" d="M453.533 689.682L437.062 636.59L494.287 637.569L495.289 643.123L453.533 689.682Z"/>
	<path fill="#FBB12B" d="M458.613 546.895L410.307 545.407L396.96 499.417L432.547 500.746L458.613 546.895Z"/>
	<path fill="#BD6479" d="M422.851 651.219L436.974 697.007L416.25 699.288C406.648 700.383 396.456 700.901 387.903 705.89L377.17 671.976L394.59 664.077C404.219 659.939 413.738 656.491 422.851 651.219Z"/>
	<path fill="#23ADAA" d="M645.861 510.045L722.536 512.735L705.045 536.911L692.231 554.868L650.043 553.907L645.861 510.045Z"/>
	<path fill="#FBB12B" d="M320.39 495.559L377.432 498.082L390.905 544.483L335.962 542.569C334.676 541.135 334.065 538.08 333.436 536.24L326.238 512.998C324.398 507.142 322.023 501.482 320.39 495.559Z"/>
	<path fill="#23ADAA" d="M511.702 637.479L571.047 638.553L578.004 680.686L572.878 681.31L522.711 687.73L511.702 637.479Z"/>
	<path fill="#23ADAA" d="M565.229 507.46L629.15 509.997L632.737 552.999L573.182 550.953L565.229 507.46Z"/>
	<path fill="#23ADAA" d="M479.925 503.694L547.089 506.617L554.772 550.192L490.448 547.966L479.925 503.694Z"/>
	<path fill="#23ADAA" d="M575.819 569.523L634.423 571.506L638.687 622.717L585.868 621.975C584.406 620.02 577.216 576.132 575.819 569.523Z"/>
	<path fill="#FBB12B" d="M341.79 561.4L397.135 563.476L413.064 618.526L359.601 617.547L341.79 561.4Z"/>
	<path fill="#FBB12B" d="M480.726 582.661C483 588.596 484.154 594.816 485.555 600.996L489.887 620.284L432.141 619.314L416.184 564.216L416.644 563.937L459.01 565.27C462.341 565.407 468.676 564.645 471.549 566.027C474.222 571.782 477.095 577.439 480.726 582.661Z"/>
	<path fill="#23ADAA" d="M508.1 620.645L495.026 566.078L558.845 568.61L560.49 580.144L568.083 621.172L527.718 620.998C521.434 620.967 514.275 621.513 508.1 620.645Z"/>
	<path fill="#FA6B4F" d="M391.848 734.777L392.462 733.897C395.036 730.714 397.913 728.852 401.916 727.898C410.547 725.843 420.312 725.403 429.165 724.589L474.25 720.007L546.593 708.632C554.954 707.431 563.391 706.032 571.813 705.392C570.141 706.616 567.981 706.96 566 707.473L555 710.359C537.135 715.337 495.173 727.317 491.72 749.451L491.664 749.902L494.203 751.045L433.444 753.288L414.872 753.592C412.107 753.631 408.796 753.326 406.101 753.84L397.888 753.751C397.247 753.547 396.561 753.39 395.964 753.075C393.512 751.778 391.304 748.251 390.525 745.656C389.344 741.723 389.965 738.323 391.848 734.777Z"/>
	<path fill="#F6A43B" d="M391.848 734.777L416.013 738.128L449.139 742.812L479.152 748.017C483.046 748.681 487.743 750.282 491.664 749.902L494.203 751.045L433.444 753.288L414.872 753.592C412.107 753.631 408.796 753.326 406.101 753.84L397.888 753.751C397.247 753.547 396.561 753.39 395.964 753.075C393.512 751.778 391.304 748.251 390.525 745.656C389.344 741.723 389.965 738.323 391.848 734.777Z"/>
</svg>
