<?xml version="1.0" encoding="utf-8" ?>
<svg xmlns="http://www.w3.org/2000/svg" xmlns:xlink="http://www.w3.org/1999/xlink" width="1024" height="1024">
	<path fill="#6148B2" d="M0 -0L1024 0L1024 1024L-0 1024L0 -0Z"/>
	<path fill="#311B77" d="M881.198 414.862L906.362 430.282L866.116 459.715L903.307 483.839L910.17 488.328C910.982 488.854 912.617 489.589 913.091 490.414L896.421 500.539L895.003 499.496L891.503 496.842L866.206 480.436C861.106 466.463 853.996 453.487 846.573 440.642C850.169 436.601 855.969 433.54 860.364 430.357L881.198 414.862Z"/>
	<path fill="#311B77" d="M878.332 552.889C887.366 557.7 895.987 564.744 904.304 570.777C909.153 574.295 914.483 577.617 918.99 581.534C907.2 591.635 893.873 600.431 881.25 609.49L843.999 636.903L710.936 735.644L649 782.533L577.494 835.909L535.174 867.325C525.927 874.229 516.735 881.697 507.093 888.013C502.714 890.882 498.642 891.983 493.423 891.472L491.5 891.122L490.77 890.965C485.496 889.775 481.777 886.094 477.247 883.421L430.987 855.168L262.842 751.166L123.985 664.599L151.702 645.314C156.375 652.002 161.219 658.446 167.962 663.184C174.859 668.028 182.386 672.003 189.57 676.407L229.627 701.348L280.79 733.566L367.097 787.051L451.041 839.87L467.026 850C469.009 851.243 471.491 853.269 473.729 853.809L474.368 853.882C478.049 850.302 483.243 847.294 487.421 844.25L513.5 824.943L625.365 742.355L677.826 702.823L818 598.572L878.332 552.889Z"/>
	<path fill="#23ADAA" d="M464.998 723.589C468.568 721.856 471.966 718.861 475.175 716.476L493.527 702.823L569.668 646.078L647.709 588.473L780.96 489.321L819.459 460.597L838.268 446.388C840.707 444.564 843.747 441.701 846.573 440.642C853.996 453.487 861.106 466.463 866.206 480.436L891.503 496.842L895.003 499.496L896.421 500.539C897.66 501.784 899.309 503.122 900.142 504.673L900.071 536.804L878.332 552.889L818 598.572L677.826 702.823L625.365 742.355L513.5 824.943L487.421 844.25C483.243 847.294 478.049 850.302 474.368 853.882L473.729 853.809C471.491 853.269 469.009 851.243 467.026 850L451.041 839.87L367.097 787.051L280.79 733.566L229.627 701.348L189.57 676.407C182.386 672.003 174.859 668.028 167.962 663.184C161.219 658.446 156.375 652.002 151.702 645.314C134.596 618.959 123.815 585.558 123.573 554.094C123.521 547.342 123.621 540.251 124.723 533.587C126.305 524.022 129.125 513.431 135.75 506.041C137.886 503.658 140.442 501.852 143.029 500C146.75 500.007 150.387 499.857 154 500.873C166.241 504.315 176.117 511.505 186.743 518.193L212.652 534.25L289.5 581.999L425.625 666.933L464.447 690.596C463.854 696.239 464.05 702.011 464.113 707.679C464.171 712.882 464.09 718.461 464.998 723.589Z"/>
	<path fill="#852E70" d="M891.503 496.842L895.003 499.496L467.558 819.34L465.39 817.83C471.048 812.221 478.564 807.545 484.829 802.547L553.906 749.882L656.945 672.75L789.75 573.255L860.775 519.872C870.885 512.235 882.007 505.194 891.503 496.842Z"/>
	<path fill="#227076" d="M473.504 822.061C475.974 821.012 478.579 818.1 480.846 816.412L507.75 796.442L555.37 762.44L610.274 721.205L656.62 687.389L761.97 608.388L866.5 529.951L900.142 504.673L900.071 536.804L878.332 552.889L818 598.572L677.826 702.823L625.365 742.355L513.5 824.943L487.421 844.25C483.243 847.294 478.049 850.302 474.368 853.882C475.042 848.516 474.667 842.698 474.725 837.28C474.775 832.621 475.34 827.344 474.643 822.75L473.504 822.061Z"/>
	<path fill="#BD6479" d="M866.206 480.436L891.503 496.842C882.007 505.194 870.885 512.235 860.775 519.872L789.75 573.255L656.945 672.75L553.906 749.882L484.829 802.547C478.564 807.545 471.048 812.221 465.39 817.83L446.116 806.122L414.111 786.574L320.058 728.152L207.494 658.299L171.897 636.5C170.282 635.437 168.981 634.231 167.918 632.61C165.734 629.28 164.012 625.418 162.213 621.859C152.023 601.69 144.511 576.153 149.097 553.45C150.309 547.451 153.172 538.997 158.794 535.648C160.83 534.435 162.003 534.717 164.145 535.238C156.659 557.436 162.081 584.971 172.315 605.56C173.873 608.694 175.745 612.716 178.62 614.799C184.514 619.07 191.707 622.414 197.975 626.235L241.707 653.273L374.376 734.898L438.56 773.981L456.395 784.91C458.767 786.302 461.351 788.139 463.872 789.215L464.604 789.447C467.147 786.995 470.958 784.998 473.833 782.812L868.39 490.072L866.206 480.436Z"/>
	<path fill="#FCD58B" d="M164.145 535.238L464.639 723.555L464.285 724.208C462.929 726.637 460.799 728.571 459.406 731.031C455.171 738.511 453.88 748.913 456.166 757.255L456.381 758L456.59 758.777C459.219 768.332 465.527 777.327 473.833 782.812C470.958 784.998 467.147 786.995 464.604 789.447L463.872 789.215C461.351 788.139 458.767 786.302 456.395 784.91L438.56 773.981L374.376 734.898L241.707 653.273L197.975 626.235C191.707 622.414 184.514 619.07 178.62 614.799C175.745 612.716 173.873 608.694 172.315 605.56C162.081 584.971 156.659 557.436 164.145 535.238Z"/>
	<path fill="#C3A56A" d="M464.998 723.589C468.568 721.856 471.966 718.861 475.175 716.476L493.527 702.823L569.668 646.078L647.709 588.473L780.96 489.321L819.459 460.597L838.268 446.388C840.707 444.564 843.747 441.701 846.573 440.642C853.996 453.487 861.106 466.463 866.206 480.436L868.39 490.072L473.833 782.812C465.527 777.327 459.219 768.332 456.59 758.777L456.381 758L456.166 757.255C453.88 748.913 455.171 738.511 459.406 731.031C460.799 728.571 462.929 726.637 464.285 724.208L464.639 723.555L464.998 723.589Z"/>
	<path fill="#65C2B0" d="M143.029 500L575.62 178.227L894.108 372.407L464.447 690.596L425.625 666.933L289.5 581.999L212.652 534.25L186.743 518.193C176.117 511.505 166.241 504.315 154 500.873C150.387 499.857 146.75 500.007 143.029 500Z"/>
	<path fill="#FCD58B" d="M573.739 246.883C575.387 247.305 576.938 248.541 578.4 249.434L588.371 255.515L630.47 281.25L789.213 379.286L765.902 395.677L550.234 264.317L573.739 246.883Z"/>
	<path fill="#FCD58B" d="M523.495 283.557L739.111 416.422C736.408 418.748 733.232 420.574 730.289 422.593L715.757 432.935C713.355 432.619 709.927 429.93 707.79 428.637L684.974 414.481L560.228 337.722L500.269 300.806L523.495 283.557Z"/>
	<path fill="#FCD58B" d="M420.037 357.732L478.365 393.052L603.453 469.379L624.227 482.005C627.654 484.056 633.685 486.78 636.036 489.834L612.857 506.685C610.908 506.586 579.201 486.533 574.992 483.962L448.227 406.547L396.255 375.331L420.037 357.732Z"/>
	<path fill="#FCD58B" d="M470.742 319.91L687.827 453.163C685.161 455.658 681.959 457.591 679.007 459.73L664.773 470.259C663.163 470.105 661.482 468.756 660.105 467.905L649.611 461.353L611.863 438.049L498.152 368.644C481.32 358.432 463.666 348.777 447.449 337.648L470.742 319.91Z"/>
	<path fill="#BD6479" d="M252.457 489.977L252.902 489.674L313.316 443.649C317.698 445.039 322.864 449.33 326.857 451.809L361.325 473.118L453 529.512L485.032 549.159C489.738 552.037 495.017 554.653 499.449 557.899C498.702 559.264 496.925 560.549 495.758 561.599C491.861 565.106 487.736 568.238 483.592 571.44L438.104 606.07L252.429 496.721C252.399 495.518 252.412 494.294 252.208 493.105C251.982 491.791 251.897 491.284 252.457 489.977Z"/>
</svg>
